<svg xmlns="http://www.w3.org/2000/svg" xmlns:svgjs="http://svgjs.com/svgjs" xmlns:xlink="http://www.w3.org/1999/xlink" width="525.801" height="525.801" version="1.1" viewBox="0 -53.296 525.801 525.801"><svg xmlns="http://www.w3.org/2000/svg" xmlns:svg="http://www.w3.org/2000/svg" xmlns:xlink="http://www.w3.org/1999/xlink" id="SvgjsSvg1011" width="525.801" height="525.801" version="1.1" viewBox="0 -53.296 525.801 525.801"><metadata id="SvgjsMetadata1008" fill="#cd9a30"/><g id="SvgjsG1006" transform="translate(-152.043, -747.812)" style="display:inline"><path style="fill:#cd9a30;fill-opacity:1;stroke:#cd9a30;stroke-width:1px;stroke-linecap:butt;stroke-linejoin:miter;stroke-opacity:1" id="SvgjsPath1005" d="m 153.54319,767.49916 20.70812,63.63962 136.87567,17.17259 c -0.77936,4.56965 -1.96419,8.80142 0,15.65736 l -124.75384,11.61676 25.25382,48.9924 101.52033,-38.3858 c 1.21122,5.32085 2.95361,10.24333 6.06091,14.14213 l -77.78174,57.5787 35.86041,24.24366 52.52794,-63.13453 c 3.2614,3.53276 5.70564,7.41574 12.12183,9.59645 l -28.28427,63.13453 33.84011,7.57614 11.61675,-60.10407 c 22.62766,8.47692 36.71204,-23.62482 15.15229,-31.81981 -44.70399,-15.06616 -57.9532,-50.41237 -30.30458,-112.12693 -9.50659,7.03489 -18.64525,15.81747 -26.26396,31.8198 z"/><path style="fill:#cd9a30;fill-opacity:1;stroke:none" id="SvgjsPath1004" d="m 414.42187,748.8125 -79.7836,123.95997 79.7836,0 -40.53366,-61.55375 81.01804,0 z m 40.48438,62.40625 -40.48438,61.5625 80.70313,0 z"/><path style="fill:#cd9a30;fill-opacity:1;stroke:#cd9a30;stroke-width:1px;stroke-linecap:butt;stroke-linejoin:miter;stroke-opacity:1" id="SvgjsPath1003" d="m 362.13969,1051.352 5.05076,-16.92 -29.7995,0 8.5863,22.9809 -30.80966,-24.2436 c -6.03084,-4.7394 -6.25713,-9.8589 1.51523,-9.5964 l 39.90103,0 15.65736,-34.34525 c 5.00949,-10.16543 22.48921,-4.25882 16.16244,8.08122 l -16.66751,26.26403 7.57614,0 c 6.48544,-0.2161 6.86992,5.8992 3.03046,9.5964 z"/><path style="fill:#cd9a30;fill-opacity:1;stroke:#cd9a30;stroke-width:1px;stroke-linecap:butt;stroke-linejoin:miter;stroke-opacity:1" id="SvgjsPath1002" d="m 414.16255,1058.9282 -17.67768,-47.8405 c 3.88676,-5.9659 6.53238,-14.50965 6.06092,-29.52728 -7.62431,-9.91628 -17.01034,-14.19505 -26.26397,-18.89749 7.25366,-6.72986 15.01687,-14.0911 17.1726,-25.54269 1.78103,-10.32317 6.48017,-18.62611 12.6269,-25.92687 l 8.08123,-23.48605 7.57614,23.48605 c 6.67205,7.26026 11.16502,15.97325 13.79703,25.92687 2.4595,10.35878 8.61351,18.54432 16.78571,25.54269 -9.30479,5.37053 -19.62068,8.84526 -26.42857,18.89749 -2.22921,11.56878 0.34607,20.97558 4.82143,29.52728 z"/><path style="fill:#cd9a30;fill-opacity:1;stroke:#cd9a30;stroke-width:1px;stroke-linecap:butt;stroke-linejoin:miter;stroke-opacity:1" id="SvgjsPath1001" d="m 676.34413,767.49916 -20.70812,63.63962 -136.87567,17.17259 c 0.77936,4.56965 1.96419,8.80142 0,15.65736 l 124.75384,11.61676 -25.25382,48.9924 -101.52033,-38.3858 c -1.21122,5.32085 -2.95361,10.24333 -6.06091,14.14213 l 77.78174,57.5787 -35.86041,24.24366 -52.52794,-63.13453 c -3.2614,3.53276 -5.70564,7.41574 -12.12183,9.59645 l 28.28427,63.13453 -33.84011,7.57614 -11.61675,-60.10407 c -22.62766,8.47692 -36.71204,-23.62482 -15.15229,-31.81981 44.70399,-15.06616 57.9532,-50.41237 30.30458,-112.12693 9.50659,7.03489 18.64525,15.81747 26.26396,31.8198 z"/><path style="fill:#cd9a30;fill-opacity:1;stroke:#cd9a30;stroke-width:1px;stroke-linecap:butt;stroke-linejoin:miter;stroke-opacity:1" id="SvgjsPath1000" d="m 466.92456,1051.352 -5.05076,-16.92 29.7995,0 -8.5863,22.9809 30.80967,-24.2436 c 6.03084,-4.7394 6.25713,-9.8589 -1.51523,-9.5964 l -39.90104,0 -15.65736,-34.34525 c -5.00949,-10.16543 -22.48921,-4.25882 -16.16244,8.08124 l 16.66751,26.26401 -7.57614,0 c -6.48544,-0.2161 -6.86992,5.8992 -3.03046,9.5964 z"/></g></svg><style>@media (prefers-color-scheme:light){:root{filter:none}}@media (prefers-color-scheme:dark){:root{filter:contrast(.7407407407407407) brightness(2)}}</style></svg>