<?xml version="1.1" encoding="UTF-8" standalone="yes"?><svg xmlns="http://www.w3.org/2000/svg" width="1280" height="640" xmlns:xlink="http://www.w3.org/1999/xlink" viewBox="0 0 1280 640"><defs><style>.cls-1{filter:url(#outer-glow-3);}.cls-2{fill:#00c1d5;}.cls-3,.cls-4{fill:#cd9a30;}.cls-5{filter:url(#outer-glow-1);}.cls-6{fill:#231f20;}.cls-4{stroke:#cd9a30;}</style><filter id="outer-glow-1" filterUnits="userSpaceOnUse"><feOffset dx="0" dy="0"/><feGaussianBlur result="blur" stdDeviation="10"/><feFlood flood-color="#cd9a30" flood-opacity=".75"/><feComposite in2="blur" operator="in"/><feComposite in="SourceGraphic"/></filter><filter id="outer-glow-3" filterUnits="userSpaceOnUse"><feOffset dx="0" dy="0"/><feGaussianBlur result="blur-2" stdDeviation="10"/><feFlood flood-color="#00c0d4" flood-opacity=".75"/><feComposite in2="blur-2" operator="in"/><feComposite in="SourceGraphic"/></filter></defs><g id="Background"><rect class="cls-6" width="1280" height="640"/></g><g id="Royal_Crest"><g id="SvgjsG1006" class="cls-5"><path id="SvgjsPath1005" class="cls-4" d="m127.0199,212.8439l16.2718,50.006,107.5525,13.4937c-.6124,3.5907-1.5434,6.9159,0,12.303l-98.0276,9.1281,19.8436,38.4966,79.7714-30.1623c.9517,4.181,2.3209,8.0489,4.7625,11.1125l-61.1184,45.2435,28.178,19.0499,41.2748-49.6091c2.5627,2.7759,4.4833,5.827,9.5249,7.5406l-22.2249,49.6091,26.5905,5.9531,9.1281-47.2279c17.7801,6.6609,28.8471-18.5636,11.9062-25.003-35.127-11.8385-45.5378-39.6124-23.8124-88.1058-7.47,5.5278-14.6509,12.4288-20.6374,25.003l-128.9837-46.8309Z"/><path id="SvgjsPath1004" class="cls-3" d="m332.0101,198.1605l-62.6914,97.4038h62.6914l-31.8501-48.367h63.6614l-31.8113-49.0368Zm31.8113,49.0368l-31.8113,48.3738h63.4139l-31.6026-48.3738Z"/><path id="SvgjsPath1003" class="cls-4" d="m290.9284,435.8864l3.9687-13.2952h-23.4155l6.7468,18.0577-24.2092-19.0499c-4.7389-3.7241-4.9167-7.7468,1.1906-7.5405h31.353l12.303-26.9874c3.9363-7.9877,17.6713-3.3465,12.6999,6.35l-13.0968,20.6374h5.9531c5.0961-.1698,5.3982,4.6354,2.3812,7.5405l-15.8749,14.2874Z"/><path id="SvgjsPath1002" class="cls-4" d="m331.8063,441.8395l-13.8906-37.5915c3.0541-4.6878,5.1329-11.4012,4.7625-23.2016-5.9909-7.7919-13.3662-11.154-20.6374-14.849,5.6997-5.2881,11.7998-11.0724,13.4937-20.0706,1.3995-8.1116,5.0919-14.6358,9.9218-20.3725l6.35-18.4546,5.9531,18.4546c5.2427,5.7049,8.7731,12.5513,10.8413,20.3725,1.9326,8.1396,6.7682,14.5715,13.1897,20.0706-7.3114,4.22-15.4173,6.9503-20.7667,14.849-1.7516,9.0904.2719,16.4819,3.7885,23.2016l-13.0058,37.5915Z"/><path id="SvgjsPath1001" class="cls-4" d="m537.8202,212.8439l-16.2718,50.006-107.5525,13.4937c.6124,3.5907,1.5434,6.9159,0,12.303l98.0276,9.1281-19.8437,38.4966-79.7714-30.1623c-.9518,4.181-2.3209,8.0489-4.7625,11.1125l61.1184,45.2435-28.178,19.0499-41.2748-49.6091c-2.5627,2.7759-4.4833,5.827-9.5249,7.5406l22.2249,49.6091-26.5905,5.9531-9.1281-47.2279c-17.7801,6.6609-28.8471-18.5636-11.9062-25.003,35.127-11.8385,45.5378-39.6124,23.8124-88.1058,7.47,5.5278,14.6509,12.4288,20.6374,25.003l128.9837-46.8309Z"/><path id="SvgjsPath1000" class="cls-4" d="m373.265,435.8864l-3.9687-13.2952h23.4155l-6.7468,18.0577,24.2092-19.0499c4.7388-3.7241,4.9167-7.7468-1.1906-7.5405h-31.353l-12.303-26.9874c-3.9363-7.9877-17.6713-3.3465-12.6999,6.35l13.0968,20.6374h-5.9531c-5.0961-.1698-5.3982,4.6354-2.3812,7.5405l15.8749,14.2874Z"/></g></g><g id="zelda.sr"><g class="cls-1"><path class="cls-2" d="m597.9917,306.5762l5.8496-26.6982h62.6978l-40.3486,81.1465h23.5488l17.3994-23.8486-5.8496,33.2988h-63.2974l39.7485-80.0977h-24.1494l-15.5991,16.1992Z"/><path class="cls-2" d="m705.6885,290.6768v28.3496h8.8496l9.1494-11.7002v33.749l-9.1494-11.5498h-8.8496v29.999h18.749l12.8994-29.999v40.7988h-64.6475l10.6494-9.2998v-71.8467l-10.6494-9.2998h64.6475v34.0488l-13.9492-23.25h-17.6992Z"/><path class="cls-2" d="m807.0859,320.5264v49.7979h-62.3975l10.6494-9.2998v-71.8467l-10.6494-9.2998h43.7988l-10.7998,9.2998v71.8467h13.499l15.8994-40.498Z"/><path class="cls-2" d="m891.0859,325.1758c0,27.1494-18.8994,45.1484-42.749,45.1484h-33.8984l10.6494-9.2998v-71.8467l-10.6494-9.2998h32.249c25.7988,0,44.3984,18.4492,44.3984,45.2979Zm-21.2998,0c0-25.9492-14.3994-35.8486-22.3486-35.8486v71.3975c6.2998,0,22.3486-9.75,22.3486-35.5488Z"/><path class="cls-2" d="m934.7344,362.8242l-4.499-20.3994h-17.8496l-5.3994,20.0996,9.8994,7.7998h-34.0488l11.25-9.2998,21.1484-71.8467-10.6494-9.2998h32.3984l20.25,81.1465,10.1992,9.2998h-40.3486l7.6494-7.5Zm-6.8994-31.1982l-5.8496-25.499-6.75,25.499h12.5996Z"/><path class="cls-2" d="m980.1846,372.7246l-14.5488-14.5498,14.5488-14.25,14.25,14.25-14.25,14.5498Z"/><path class="cls-2" d="m1062.9814,345.4248c0,16.3496-14.25,27.1494-30.5996,27.1494-8.8496,0-14.999-2.25-20.8486-6l-7.6494,6-.1504-39.8984c9.8994,21.1484,18.1494,29.3984,27.749,29.3984,7.0498,0,13.6494-4.9492,13.6494-12.749,0-8.4004-8.3994-13.0498-18.2998-18.2998-10.7988-5.6992-21.8984-12.4492-21.8984-28.3486,0-16.0498,11.999-25.0488,28.1982-25.0488,6.5996,0,12.8994,1.6494,17.6992,4.9492l7.0498-5.0996v32.5488c-5.3994-16.499-14.5488-22.0488-23.5488-22.0488-8.25,0-12.8994,3.2998-12.8994,9.5996,0,7.6494,9.2998,12.2988,19.1992,17.249,11.5498,6,22.3496,13.1992,22.3496,30.5986Z"/><path class="cls-2" d="m1099.5801,330.7256v30.2988l10.7998,9.2998h-43.7988l10.5-9.2998v-71.8467l-10.5-9.2998h37.7988c26.3984,0,40.0479,8.999,40.0479,24.4492,0,16.9492-11.999,21.1484-23.3984,23.5488l20.5488,33.1484,11.3994,9.2998h-29.3984l-23.999-39.5986Zm1.6494-41.5479h-1.6494v29.5488h1.6494c17.0996,0,21.5996-5.1006,21.5996-14.0996,0-9.8994-5.4004-15.4492-21.5996-15.4492Z"/></g></g></svg>
